<?xml version="1.0" standalone="no"?>
<!DOCTYPE svg PUBLIC "-//W3C//DTD SVG 20010904//EN"
 "http://www.w3.org/TR/2001/REC-SVG-20010904/DTD/svg10.dtd">
<svg version="1.0" xmlns="http://www.w3.org/2000/svg"
 width="550.000000pt" height="444.000000pt" viewBox="0 0 550.000000 444.000000"
 preserveAspectRatio="xMidYMid meet">

<g transform="translate(0.000000,444.000000) scale(0.100000,-0.100000)"
fill="#000000" stroke="none">
<path d="M2211 3781 c-12 -16 -34 -32 -50 -36 -38 -8 -44 -25 -20 -61 10 -16
19 -44 19 -62 0 -38 17 -48 57 -34 18 5 38 5 56 -1 36 -12 57 5 57 47 0 17 7
40 15 50 23 30 18 46 -17 61 -18 7 -43 25 -55 39 -29 33 -37 33 -62 -3z"/>
<path d="M3746 3741 c-3 -5 -1 -24 6 -42 10 -29 12 -31 19 -13 13 32 10 64 -5
64 -8 0 -17 -4 -20 -9z"/>
<path d="M3656 3702 c-8 -13 7 -30 37 -41 l27 -11 -15 30 c-15 29 -38 39 -49
22z"/>
<path d="M3825 3679 l-16 -30 30 16 c32 16 42 45 16 45 -8 0 -22 -14 -30 -31z"/>
<path d="M3620 3607 c0 -23 9 -25 47 -14 29 9 32 12 17 18 -31 12 -64 10 -64
-4z"/>
<path d="M3846 3611 c-18 -7 -16 -9 13 -19 36 -13 51 -9 51 14 0 15 -32 18
-64 5z"/>
<path d="M3682 3540 c-18 -11 -30 -25 -27 -30 12 -19 35 -10 50 20 18 36 19
35 -23 10z"/>
<path d="M3810 3556 c0 -20 27 -56 42 -56 28 0 21 28 -12 45 -16 9 -30 13 -30
11z"/>
<path d="M3752 3511 c-13 -36 -9 -51 14 -51 15 0 18 32 5 64 -7 18 -9 16 -19
-13z"/>
<path d="M1382 3438 c-7 -7 -12 -21 -12 -32 0 -24 32 -126 39 -126 6 0 28 59
45 116 12 40 -43 71 -72 42z"/>
<path d="M1577 3368 c-15 -8 -77 -116 -77 -133 0 -3 32 11 70 30 55 28 70 40
70 58 0 40 -32 63 -63 45z"/>
<path d="M1191 3356 c-25 -30 -5 -60 64 -94 36 -17 65 -28 65 -24 0 4 -15 34
-33 67 -25 47 -38 61 -58 63 -14 2 -31 -4 -38 -12z"/>
<path d="M1115 3170 c-15 -17 -16 -24 -7 -45 15 -32 41 -32 121 -2 l61 23 -68
22 c-83 27 -85 27 -107 2z"/>
<path d="M1595 3166 l-59 -23 64 -21 c79 -27 96 -27 110 -3 14 27 13 37 -6 55
-20 21 -37 20 -109 -8z"/>
<path d="M1248 3020 c-65 -34 -72 -42 -64 -75 7 -27 38 -41 62 -27 17 10 79
132 66 132 -4 -1 -33 -14 -64 -30z"/>
<path d="M1529 2992 c38 -75 54 -89 86 -74 30 14 33 51 8 75 -15 13 -106 57
-119 57 -2 0 9 -26 25 -58z"/>
<path d="M1386 2952 c-25 -80 -20 -106 21 -110 49 -5 57 21 31 102 -12 36 -25
66 -28 66 -4 0 -15 -26 -24 -58z"/>
<path d="M4204 2719 c-3 -6 -22 -17 -40 -25 -30 -12 -33 -17 -24 -34 5 -10 10
-29 10 -42 0 -21 4 -23 53 -22 45 0 52 3 55 21 2 12 10 27 18 33 18 16 18 40
-1 40 -8 0 -20 9 -27 20 -14 22 -33 26 -44 9z"/>
<path d="M1014 2268 c-8 -28 -15 -33 -44 -36 -50 -5 -54 -14 -21 -46 26 -25
28 -31 19 -58 -14 -39 -4 -46 37 -24 33 18 34 18 64 -4 35 -25 49 -12 32 31
-7 20 -4 29 22 56 33 35 30 39 -28 45 -24 2 -31 9 -39 36 -5 17 -14 32 -21 32
-7 0 -16 -15 -21 -32z"/>
<path d="M206 1675 c-15 -15 -13 -32 11 -95 9 -23 11 -21 27 28 14 42 15 56 6
67 -16 19 -25 19 -44 0z"/>
<path d="M63 1614 c-9 -24 7 -43 54 -64 l43 -19 -25 50 c-26 51 -59 66 -72 33z"/>
<path d="M315 1581 c-14 -28 -22 -51 -18 -51 5 0 26 11 48 23 30 17 40 29 40
47 0 18 -6 26 -22 28 -18 3 -27 -7 -48 -47z"/>
<path d="M4532 1584 c3 -44 1 -48 -29 -68 -46 -30 -43 -53 9 -63 38 -8 44 -12
53 -48 7 -21 17 -41 23 -43 6 -2 23 15 37 38 25 40 28 41 66 35 54 -9 63 15
22 57 -30 30 -30 30 -15 70 20 52 4 65 -47 38 -36 -18 -36 -18 -66 6 -46 37
-58 32 -53 -22z"/>
<path d="M13 1485 c-14 -11 -16 -17 -7 -32 13 -21 44 -21 93 -1 l33 13 -50 17
c-43 13 -54 14 -69 3z"/>
<path d="M365 1480 l-50 -17 53 -17 c55 -19 82 -12 82 20 0 26 -33 32 -85 14z"/>
<path d="M107 1374 c-38 -20 -48 -30 -45 -47 2 -16 10 -22 28 -22 19 0 30 10
48 43 13 24 23 45 21 47 -2 2 -26 -8 -52 -21z"/>
<path d="M315 1350 c21 -41 30 -51 48 -48 14 2 23 11 25 25 3 18 -7 27 -48 48
l-51 26 26 -51z"/>
<path d="M207 1319 c-15 -48 -15 -55 -2 -69 12 -11 19 -12 33 -3 20 12 20 44
0 92 l-13 33 -18 -53z"/>
<path d="M1100 1035 c-7 -13 -28 -29 -46 -35 -44 -15 -49 -26 -27 -58 10 -15
20 -45 23 -67 4 -36 8 -40 30 -37 32 3 78 3 110 0 22 -3 25 1 28 36 2 22 10
49 18 60 23 34 18 56 -16 63 -17 3 -39 18 -51 34 -25 36 -51 37 -69 4z"/>
<path d="M2424 1037 c-3 -8 0 -27 7 -43 l11 -29 10 28 c11 30 5 57 -12 57 -6
0 -13 -6 -16 -13z"/>
<path d="M2330 992 c0 -18 47 -48 58 -38 8 9 -28 56 -43 56 -8 0 -15 -8 -15
-18z"/>
<path d="M2505 980 c-17 -34 -16 -35 20 -18 14 6 25 19 25 30 0 28 -28 21 -45
-12z"/>
<path d="M2294 906 c-9 -24 0 -29 42 -22 39 8 36 20 -8 31 -21 5 -29 3 -34 -9z"/>
<path d="M2535 906 l-30 -13 38 -8 c42 -8 52 -4 44 20 -8 18 -13 18 -52 1z"/>
<path d="M5294 845 c-3 -8 0 -31 6 -51 l13 -38 14 37 c9 20 13 44 9 52 -7 19
-35 19 -42 0z"/>
<path d="M2358 834 c-32 -17 -37 -44 -10 -44 11 0 24 12 31 26 15 34 12 36
-21 18z"/>
<path d="M2506 820 c21 -36 37 -43 42 -17 2 10 -9 22 -29 32 l-32 17 19 -32z"/>
<path d="M2431 802 c-17 -32 -13 -52 9 -52 21 0 28 33 11 59 -7 11 -11 10 -20
-7z"/>
<path d="M5193 813 c-27 -10 -13 -43 23 -58 20 -8 38 -15 40 -15 2 0 -4 16
-13 35 -17 36 -29 45 -50 38z"/>
<path d="M5413 812 c-12 -8 -46 -72 -39 -72 21 0 76 37 76 51 0 19 -21 31 -37
21z"/>
<path d="M5139 694 c-10 -12 -9 -18 2 -30 13 -12 20 -12 55 0 l39 14 -30 11
c-16 6 -35 13 -42 16 -6 2 -17 -3 -24 -11z"/>
<path d="M5420 688 c-25 -10 -25 -10 14 -24 35 -12 42 -12 54 0 31 30 -15 47
-68 24z"/>
<path d="M5213 603 c-32 -16 -44 -45 -24 -57 17 -11 38 5 54 39 19 39 16 41
-30 18z"/>
<path d="M5390 579 c23 -43 53 -51 58 -13 2 14 -7 24 -33 37 -20 9 -38 17 -41
17 -2 0 5 -18 16 -41z"/>
<path d="M5301 567 c-14 -43 -9 -67 14 -67 23 0 27 21 12 65 l-14 40 -12 -38z"/>
</g>
</svg>
